<svg xmlns="http://www.w3.org/2000/svg" xmlns:xlink="http://www.w3.org/1999/xlink" width="500" zoomAndPan="magnify" viewBox="0 0 375 374.999991" height="500" preserveAspectRatio="xMidYMid meet" version="1.0"><defs><g/><clipPath id="67cf682f3e"><path d="M 80.132812 8 L 294.632812 8 L 294.632812 270.867188 L 80.132812 270.867188 Z M 80.132812 8 " clip-rule="nonzero"/></clipPath></defs><g clip-path="url(#67cf682f3e)"><path fill="#ffffff" d="M 210.964844 254.355469 L 209.167969 261.644531 C 207.914062 266.710938 204.898438 271.140625 199.671875 271.140625 L 175.328125 271.140625 C 170.101562 271.140625 167.082031 266.710938 165.832031 261.644531 L 164.035156 254.355469 C 163.914062 253.882812 163.851562 253.402344 163.84375 252.914062 C 163.835938 252.425781 163.882812 251.945312 163.984375 251.464844 C 164.085938 250.988281 164.242188 250.527344 164.449219 250.085938 C 164.65625 249.644531 164.910156 249.230469 165.210938 248.847656 C 165.511719 248.464844 165.851562 248.117188 166.234375 247.8125 C 166.613281 247.507812 167.023438 247.246094 167.460938 247.035156 C 167.902344 246.820312 168.359375 246.660156 168.835938 246.554688 C 169.3125 246.445312 169.792969 246.394531 170.28125 246.394531 L 204.71875 246.394531 C 205.207031 246.394531 205.6875 246.445312 206.164062 246.554688 C 206.640625 246.664062 207.097656 246.824219 207.535156 247.035156 C 207.976562 247.25 208.382812 247.507812 208.765625 247.816406 C 209.144531 248.121094 209.484375 248.464844 209.785156 248.851562 C 210.085938 249.234375 210.339844 249.648438 210.546875 250.089844 C 210.753906 250.53125 210.910156 250.988281 211.011719 251.46875 C 211.113281 251.945312 211.160156 252.425781 211.152344 252.914062 C 211.144531 253.402344 211.082031 253.882812 210.964844 254.355469 M 250.34375 175.640625 C 250.765625 175.640625 251.179688 175.597656 251.59375 175.511719 C 252.007812 175.429688 252.410156 175.304688 252.796875 175.140625 C 253.1875 174.980469 253.554688 174.78125 253.90625 174.546875 C 254.253906 174.3125 254.578125 174.046875 254.878906 173.746094 C 255.175781 173.449219 255.441406 173.125 255.675781 172.777344 C 255.910156 172.425781 256.109375 172.054688 256.273438 171.667969 C 256.433594 171.277344 256.558594 170.878906 256.640625 170.464844 C 256.726562 170.050781 256.769531 169.632812 256.773438 169.210938 L 256.773438 117.171875 C 256.765625 116.75 256.722656 116.335938 256.636719 115.925781 C 256.550781 115.515625 256.425781 115.117188 256.261719 114.730469 C 256.097656 114.34375 255.898438 113.976562 255.664062 113.628906 C 255.429688 113.28125 255.160156 112.957031 254.863281 112.660156 C 254.566406 112.367188 254.242188 112.101562 253.894531 111.867188 C 253.542969 111.636719 253.175781 111.4375 252.789062 111.277344 C 252.402344 111.117188 252 110.992188 251.589844 110.910156 C 251.179688 110.828125 250.761719 110.785156 250.34375 110.78125 C 208.441406 110.78125 166.546875 110.78125 124.652344 110.78125 C 124.230469 110.785156 123.8125 110.828125 123.398438 110.910156 C 122.984375 110.996094 122.585938 111.117188 122.195312 111.28125 C 121.808594 111.441406 121.4375 111.640625 121.089844 111.875 C 120.738281 112.109375 120.414062 112.378906 120.117188 112.675781 C 119.816406 112.972656 119.550781 113.296875 119.316406 113.648438 C 119.082031 113.996094 118.882812 114.367188 118.722656 114.753906 C 118.558594 115.144531 118.433594 115.546875 118.351562 115.957031 C 118.265625 116.371094 118.222656 116.789062 118.222656 117.210938 L 118.222656 169.210938 C 118.222656 169.636719 118.269531 170.054688 118.351562 170.46875 C 118.4375 170.882812 118.5625 171.285156 118.726562 171.675781 C 118.886719 172.066406 119.089844 172.4375 119.324219 172.789062 C 119.5625 173.136719 119.828125 173.464844 120.128906 173.761719 C 120.429688 174.058594 120.757812 174.324219 121.109375 174.558594 C 121.460938 174.792969 121.832031 174.992188 122.222656 175.152344 C 122.613281 175.316406 123.015625 175.4375 123.433594 175.519531 C 123.847656 175.601562 124.265625 175.640625 124.691406 175.640625 Z M 220.332031 129.027344 C 221.902344 129.023438 223.410156 129.324219 224.859375 129.925781 C 224.589844 130.125 224.347656 130.347656 224.128906 130.597656 C 223.910156 130.847656 223.71875 131.121094 223.558594 131.410156 C 223.398438 131.703125 223.269531 132.007812 223.175781 132.324219 C 223.082031 132.644531 223.019531 132.96875 222.996094 133.300781 C 222.972656 133.632812 222.984375 133.964844 223.03125 134.292969 C 223.074219 134.621094 223.15625 134.941406 223.273438 135.253906 C 223.390625 135.566406 223.535156 135.863281 223.714844 136.140625 C 223.894531 136.421875 224.101562 136.679688 224.339844 136.914062 C 224.574219 137.148438 224.832031 137.359375 225.109375 137.535156 C 225.390625 137.714844 225.6875 137.863281 226 137.980469 C 226.308594 138.097656 226.632812 138.175781 226.960938 138.222656 C 227.289062 138.269531 227.621094 138.28125 227.953125 138.257812 C 228.285156 138.230469 228.609375 138.171875 228.925781 138.078125 C 229.246094 137.980469 229.550781 137.855469 229.84375 137.695312 C 230.132812 137.53125 230.40625 137.34375 230.65625 137.125 C 230.90625 136.90625 231.128906 136.660156 231.328125 136.394531 C 231.488281 136.785156 231.628906 137.183594 231.746094 137.585938 C 231.863281 137.992188 231.960938 138.402344 232.035156 138.820312 C 232.109375 139.234375 232.164062 139.652344 232.195312 140.074219 C 232.222656 140.496094 232.230469 140.917969 232.21875 141.339844 C 232.203125 141.761719 232.164062 142.179688 232.105469 142.597656 C 232.046875 143.015625 231.964844 143.429688 231.863281 143.839844 C 231.757812 144.25 231.636719 144.652344 231.488281 145.046875 C 231.34375 145.445312 231.175781 145.832031 230.988281 146.210938 C 230.800781 146.589844 230.59375 146.957031 230.367188 147.3125 C 230.140625 147.667969 229.898438 148.011719 229.632812 148.339844 C 229.371094 148.671875 229.089844 148.988281 228.792969 149.289062 C 228.496094 149.589844 228.1875 149.871094 227.859375 150.140625 C 227.53125 150.40625 227.191406 150.65625 226.839844 150.886719 C 226.484375 151.117188 226.121094 151.332031 225.746094 151.523438 C 225.371094 151.714844 224.984375 151.886719 224.589844 152.039062 C 224.195312 152.191406 223.792969 152.320312 223.386719 152.429688 C 222.980469 152.535156 222.566406 152.625 222.148438 152.6875 C 221.730469 152.753906 221.3125 152.796875 220.890625 152.816406 C 220.46875 152.835938 220.046875 152.832031 219.625 152.808594 C 219.203125 152.785156 218.785156 152.738281 218.367188 152.667969 C 217.953125 152.597656 217.539062 152.507812 217.132812 152.394531 C 216.726562 152.28125 216.328125 152.144531 215.933594 151.992188 C 215.542969 151.835938 215.160156 151.660156 214.785156 151.460938 C 214.414062 151.265625 214.050781 151.050781 213.699219 150.816406 C 213.347656 150.582031 213.011719 150.328125 212.6875 150.054688 C 212.363281 149.785156 212.054688 149.5 211.761719 149.195312 C 211.46875 148.890625 211.191406 148.570312 210.933594 148.238281 C 210.671875 147.90625 210.433594 147.558594 210.210938 147.199219 C 209.988281 146.84375 209.785156 146.472656 209.601562 146.09375 C 209.417969 145.710938 209.253906 145.324219 209.113281 144.925781 C 208.972656 144.527344 208.851562 144.125 208.753906 143.710938 C 208.652344 143.300781 208.578125 142.886719 208.523438 142.46875 C 208.46875 142.050781 208.4375 141.628906 208.425781 141.207031 C 208.414062 140.785156 208.429688 140.363281 208.464844 139.945312 C 208.5 139.523438 208.554688 139.105469 208.632812 138.691406 C 208.714844 138.277344 208.816406 137.867188 208.9375 137.460938 C 209.0625 137.058594 209.207031 136.664062 209.371094 136.273438 C 209.535156 135.886719 209.71875 135.507812 209.925781 135.136719 C 210.132812 134.769531 210.355469 134.410156 210.597656 134.066406 C 210.84375 133.722656 211.105469 133.390625 211.382812 133.074219 C 211.660156 132.757812 211.957031 132.453125 212.265625 132.167969 C 212.578125 131.882812 212.902344 131.613281 213.242188 131.363281 C 213.582031 131.113281 213.933594 130.878906 214.296875 130.664062 C 214.660156 130.453125 215.035156 130.257812 215.421875 130.085938 C 215.804688 129.910156 216.199219 129.757812 216.597656 129.625 C 217 129.492188 217.40625 129.382812 217.820312 129.292969 C 218.230469 129.203125 218.648438 129.136719 219.066406 129.09375 C 219.488281 129.050781 219.910156 129.027344 220.332031 129.027344 Z M 154.667969 129.027344 C 156.238281 129.023438 157.746094 129.324219 159.195312 129.925781 C 158.929688 130.125 158.683594 130.347656 158.464844 130.597656 C 158.246094 130.847656 158.058594 131.121094 157.898438 131.410156 C 157.734375 131.703125 157.609375 132.007812 157.511719 132.324219 C 157.417969 132.644531 157.359375 132.96875 157.332031 133.300781 C 157.308594 133.632812 157.320312 133.964844 157.367188 134.292969 C 157.414062 134.621094 157.496094 134.941406 157.609375 135.253906 C 157.726562 135.566406 157.875 135.863281 158.054688 136.140625 C 158.234375 136.421875 158.441406 136.679688 158.675781 136.914062 C 158.910156 137.148438 159.167969 137.359375 159.449219 137.535156 C 159.726562 137.714844 160.023438 137.863281 160.335938 137.980469 C 160.648438 138.097656 160.96875 138.175781 161.296875 138.222656 C 161.628906 138.269531 161.957031 138.28125 162.289062 138.257812 C 162.621094 138.230469 162.945312 138.171875 163.265625 138.078125 C 163.582031 137.980469 163.890625 137.855469 164.179688 137.695312 C 164.472656 137.53125 164.742188 137.34375 164.992188 137.125 C 165.242188 136.90625 165.464844 136.660156 165.664062 136.394531 C 165.824219 136.785156 165.964844 137.183594 166.082031 137.585938 C 166.199219 137.992188 166.296875 138.402344 166.371094 138.816406 C 166.445312 139.234375 166.5 139.652344 166.527344 140.070312 C 166.558594 140.492188 166.566406 140.914062 166.550781 141.335938 C 166.539062 141.757812 166.5 142.175781 166.441406 142.59375 C 166.382812 143.011719 166.300781 143.425781 166.199219 143.835938 C 166.09375 144.242188 165.96875 144.644531 165.824219 145.042969 C 165.675781 145.4375 165.511719 145.824219 165.324219 146.203125 C 165.136719 146.582031 164.929688 146.949219 164.703125 147.304688 C 164.476562 147.660156 164.230469 148.003906 163.96875 148.332031 C 163.707031 148.664062 163.425781 148.976562 163.128906 149.277344 C 162.832031 149.578125 162.519531 149.863281 162.195312 150.128906 C 161.867188 150.398438 161.527344 150.644531 161.175781 150.875 C 160.820312 151.109375 160.457031 151.320312 160.082031 151.511719 C 159.707031 151.703125 159.320312 151.875 158.929688 152.027344 C 158.535156 152.175781 158.132812 152.308594 157.726562 152.414062 C 157.316406 152.523438 156.90625 152.609375 156.488281 152.675781 C 156.070312 152.742188 155.652344 152.78125 155.230469 152.804688 C 154.808594 152.824219 154.386719 152.820312 153.96875 152.796875 C 153.546875 152.769531 153.125 152.722656 152.710938 152.65625 C 152.292969 152.585938 151.882812 152.496094 151.476562 152.382812 C 151.070312 152.269531 150.671875 152.132812 150.277344 151.976562 C 149.886719 151.824219 149.503906 151.648438 149.128906 151.449219 C 148.757812 151.253906 148.394531 151.039062 148.042969 150.804688 C 147.695312 150.570312 147.355469 150.316406 147.03125 150.046875 C 146.710938 149.773438 146.402344 149.488281 146.109375 149.183594 C 145.816406 148.878906 145.539062 148.5625 145.28125 148.230469 C 145.019531 147.894531 144.78125 147.550781 144.558594 147.191406 C 144.335938 146.832031 144.132812 146.464844 143.949219 146.082031 C 143.765625 145.703125 143.601562 145.316406 143.460938 144.917969 C 143.320312 144.519531 143.199219 144.117188 143.101562 143.707031 C 143.003906 143.296875 142.925781 142.882812 142.871094 142.464844 C 142.816406 142.042969 142.785156 141.625 142.773438 141.203125 C 142.765625 140.78125 142.777344 140.359375 142.8125 139.941406 C 142.847656 139.519531 142.902344 139.101562 142.980469 138.6875 C 143.0625 138.273438 143.164062 137.863281 143.285156 137.460938 C 143.40625 137.054688 143.550781 136.660156 143.71875 136.273438 C 143.882812 135.882812 144.066406 135.503906 144.273438 135.136719 C 144.476562 134.769531 144.703125 134.410156 144.945312 134.066406 C 145.1875 133.722656 145.449219 133.390625 145.726562 133.074219 C 146.003906 132.757812 146.300781 132.457031 146.609375 132.167969 C 146.921875 131.882812 147.246094 131.617188 147.585938 131.363281 C 147.921875 131.113281 148.273438 130.878906 148.640625 130.667969 C 149.003906 130.453125 149.375 130.257812 149.761719 130.085938 C 150.144531 129.910156 150.539062 129.757812 150.9375 129.625 C 151.339844 129.492188 151.746094 129.382812 152.160156 129.292969 C 152.570312 129.207031 152.988281 129.136719 153.40625 129.09375 C 153.824219 129.050781 154.246094 129.027344 154.667969 129.027344 Z M 294.835938 109.625 L 294.835938 176.78125 C 294.832031 177.988281 294.769531 179.195312 294.648438 180.394531 C 294.527344 181.597656 294.347656 182.792969 294.109375 183.976562 C 293.871094 185.160156 293.574219 186.332031 293.222656 187.488281 C 292.867188 188.644531 292.460938 189.777344 291.996094 190.894531 C 291.53125 192.007812 291.015625 193.101562 290.445312 194.164062 C 289.871094 195.230469 289.25 196.265625 288.578125 197.269531 C 287.90625 198.273438 287.1875 199.242188 286.421875 200.175781 C 285.652344 201.109375 284.84375 202.003906 283.988281 202.859375 C 283.132812 203.714844 282.238281 204.523438 281.304688 205.289062 C 280.371094 206.058594 279.402344 206.777344 278.398438 207.449219 C 277.394531 208.121094 276.359375 208.742188 275.296875 209.3125 C 274.230469 209.882812 273.140625 210.402344 272.023438 210.867188 C 270.910156 211.328125 269.773438 211.738281 268.617188 212.089844 C 267.460938 212.445312 266.292969 212.738281 265.105469 212.976562 C 263.921875 213.214844 262.726562 213.398438 261.527344 213.519531 C 260.324219 213.640625 259.117188 213.703125 257.910156 213.707031 L 220.945312 213.707031 L 217.335938 228.433594 C 217.171875 229.136719 216.894531 229.789062 216.503906 230.398438 C 216.117188 231.007812 215.640625 231.535156 215.070312 231.980469 C 214.503906 232.425781 213.878906 232.761719 213.195312 232.996094 C 212.511719 233.230469 211.808594 233.34375 211.089844 233.335938 L 163.90625 233.335938 C 163.183594 233.339844 162.480469 233.226562 161.796875 232.996094 C 161.117188 232.761719 160.492188 232.421875 159.921875 231.976562 C 159.355469 231.53125 158.878906 231.003906 158.488281 230.398438 C 158.101562 229.789062 157.824219 229.136719 157.65625 228.433594 L 154.054688 213.707031 L 117.089844 213.707031 C 115.882812 213.703125 114.675781 213.640625 113.472656 213.519531 C 112.273438 213.398438 111.078125 213.214844 109.894531 212.976562 C 108.707031 212.738281 107.539062 212.445312 106.382812 212.089844 C 105.226562 211.738281 104.089844 211.328125 102.976562 210.867188 C 101.859375 210.402344 100.769531 209.882812 99.703125 209.3125 C 98.640625 208.742188 97.605469 208.121094 96.601562 207.449219 C 95.597656 206.777344 94.628906 206.058594 93.695312 205.289062 C 92.761719 204.523438 91.867188 203.714844 91.011719 202.859375 C 90.15625 202.003906 89.347656 201.109375 88.578125 200.175781 C 87.8125 199.242188 87.09375 198.273438 86.421875 197.269531 C 85.75 196.265625 85.128906 195.230469 84.554688 194.164062 C 83.984375 193.101562 83.46875 192.007812 83.003906 190.894531 C 82.539062 189.777344 82.132812 188.644531 81.777344 187.488281 C 81.425781 186.332031 81.128906 185.160156 80.890625 183.976562 C 80.652344 182.792969 80.472656 181.597656 80.351562 180.394531 C 80.230469 179.195312 80.167969 177.988281 80.164062 176.78125 L 80.164062 109.558594 C 80.167969 108.351562 80.230469 107.144531 80.351562 105.941406 C 80.472656 104.742188 80.652344 103.546875 80.890625 102.363281 C 81.128906 101.179688 81.425781 100.007812 81.777344 98.851562 C 82.132812 97.695312 82.539062 96.558594 83.003906 95.445312 C 83.46875 94.328125 83.984375 93.238281 84.554688 92.171875 C 85.128906 91.109375 85.75 90.074219 86.421875 89.070312 C 87.09375 88.066406 87.8125 87.097656 88.578125 86.164062 C 89.347656 85.230469 90.15625 84.335938 91.011719 83.480469 C 91.867188 82.625 92.761719 81.816406 93.695312 81.046875 C 94.628906 80.28125 95.597656 79.5625 96.601562 78.890625 C 97.605469 78.21875 98.640625 77.597656 99.703125 77.023438 C 100.769531 76.453125 101.859375 75.9375 102.976562 75.472656 C 104.089844 75.007812 105.226562 74.601562 106.382812 74.246094 C 107.539062 73.894531 108.707031 73.597656 109.894531 73.359375 C 111.078125 73.121094 112.273438 72.941406 113.472656 72.820312 C 114.675781 72.699219 115.882812 72.636719 117.089844 72.632812 L 145.339844 72.632812 L 137.394531 39.554688 C 136.777344 39.523438 136.167969 39.453125 135.5625 39.347656 C 134.957031 39.242188 134.359375 39.101562 133.769531 38.929688 C 133.179688 38.753906 132.601562 38.542969 132.035156 38.300781 C 131.472656 38.054688 130.921875 37.777344 130.390625 37.472656 C 129.859375 37.164062 129.347656 36.824219 128.855469 36.453125 C 128.363281 36.085938 127.894531 35.6875 127.445312 35.265625 C 127 34.839844 126.582031 34.390625 126.191406 33.917969 C 125.796875 33.445312 125.433594 32.949219 125.101562 32.433594 C 124.765625 31.917969 124.464844 31.382812 124.191406 30.828125 C 123.921875 30.277344 123.683594 29.710938 123.480469 29.128906 C 123.273438 28.550781 123.105469 27.960938 122.972656 27.359375 C 122.835938 26.757812 122.738281 26.152344 122.675781 25.542969 C 122.613281 24.929688 122.585938 24.316406 122.59375 23.699219 C 122.601562 23.085938 122.648438 22.472656 122.730469 21.863281 C 122.8125 21.253906 122.929688 20.652344 123.082031 20.054688 C 123.234375 19.460938 123.421875 18.875 123.644531 18.300781 C 123.867188 17.726562 124.121094 17.167969 124.410156 16.625 C 124.695312 16.082031 125.015625 15.554688 125.363281 15.050781 C 125.714844 14.542969 126.09375 14.058594 126.5 13.597656 C 126.90625 13.136719 127.339844 12.699219 127.796875 12.289062 C 128.253906 11.878906 128.734375 11.496094 129.238281 11.144531 C 129.742188 10.789062 130.265625 10.464844 130.804688 10.175781 C 131.347656 9.882812 131.902344 9.625 132.476562 9.398438 C 133.046875 9.171875 133.632812 8.976562 134.226562 8.820312 C 134.820312 8.664062 135.421875 8.542969 136.03125 8.453125 C 136.640625 8.367188 137.253906 8.316406 137.867188 8.304688 C 138.484375 8.289062 139.097656 8.3125 139.710938 8.371094 C 140.320312 8.425781 140.929688 8.519531 141.53125 8.652344 C 142.132812 8.78125 142.722656 8.945312 143.304688 9.144531 C 143.886719 9.34375 144.453125 9.578125 145.007812 9.84375 C 145.5625 10.109375 146.101562 10.410156 146.621094 10.738281 C 147.140625 11.070312 147.636719 11.429688 148.113281 11.816406 C 148.589844 12.207031 149.042969 12.621094 149.472656 13.0625 C 149.898438 13.503906 150.300781 13.972656 150.671875 14.460938 C 151.042969 14.949219 151.386719 15.460938 151.699219 15.988281 C 152.011719 16.519531 152.292969 17.066406 152.542969 17.628906 C 152.789062 18.191406 153.003906 18.765625 153.183594 19.355469 C 153.363281 19.941406 153.511719 20.539062 153.621094 21.144531 C 153.730469 21.75 153.804688 22.359375 153.839844 22.972656 C 153.878906 23.589844 153.882812 24.203125 153.847656 24.816406 C 153.8125 25.429688 153.742188 26.039062 153.636719 26.648438 C 153.527344 27.253906 153.386719 27.851562 153.210938 28.4375 C 153.03125 29.027344 152.820312 29.605469 152.578125 30.167969 C 152.332031 30.734375 152.054688 31.28125 151.746094 31.8125 C 151.433594 32.34375 151.09375 32.855469 150.726562 33.347656 C 150.355469 33.839844 149.957031 34.308594 149.53125 34.75 C 149.105469 35.195312 148.65625 35.613281 148.179688 36.003906 C 147.707031 36.398438 147.210938 36.757812 146.695312 37.089844 L 158.433594 72.664062 L 216.566406 72.664062 L 228.28125 37.089844 C 227.761719 36.757812 227.265625 36.394531 226.792969 36.003906 C 226.316406 35.613281 225.867188 35.195312 225.441406 34.75 C 225.015625 34.304688 224.617188 33.835938 224.246094 33.347656 C 223.875 32.855469 223.535156 32.34375 223.226562 31.8125 C 222.917969 31.277344 222.636719 30.730469 222.394531 30.167969 C 222.148438 29.601562 221.9375 29.023438 221.757812 28.433594 C 221.582031 27.847656 221.441406 27.25 221.335938 26.640625 C 221.226562 26.035156 221.15625 25.425781 221.121094 24.8125 C 221.085938 24.195312 221.089844 23.582031 221.128906 22.96875 C 221.164062 22.351562 221.238281 21.742188 221.347656 21.136719 C 221.460938 20.53125 221.605469 19.933594 221.785156 19.347656 C 221.964844 18.757812 222.179688 18.183594 222.429688 17.617188 C 222.675781 17.054688 222.957031 16.507812 223.269531 15.980469 C 223.582031 15.449219 223.925781 14.9375 224.296875 14.449219 C 224.671875 13.960938 225.070312 13.492188 225.5 13.050781 C 225.929688 12.609375 226.378906 12.195312 226.859375 11.804688 C 227.335938 11.414062 227.832031 11.054688 228.351562 10.726562 C 228.871094 10.394531 229.410156 10.097656 229.964844 9.832031 C 230.519531 9.5625 231.085938 9.332031 231.667969 9.132812 C 232.253906 8.933594 232.84375 8.765625 233.445312 8.636719 C 234.046875 8.507812 234.65625 8.414062 235.265625 8.355469 C 235.878906 8.296875 236.496094 8.277344 237.109375 8.289062 C 237.726562 8.304688 238.335938 8.355469 238.945312 8.441406 C 239.554688 8.527344 240.160156 8.652344 240.753906 8.808594 C 241.347656 8.964844 241.933594 9.160156 242.503906 9.386719 C 243.078125 9.613281 243.632812 9.871094 244.175781 10.164062 C 244.714844 10.457031 245.238281 10.777344 245.742188 11.132812 C 246.246094 11.488281 246.726562 11.871094 247.1875 12.28125 C 247.644531 12.691406 248.078125 13.128906 248.484375 13.589844 C 248.890625 14.050781 249.269531 14.535156 249.617188 15.042969 C 249.96875 15.546875 250.285156 16.074219 250.574219 16.617188 C 250.863281 17.160156 251.117188 17.722656 251.339844 18.296875 C 251.5625 18.871094 251.746094 19.453125 251.902344 20.050781 C 252.054688 20.648438 252.171875 21.25 252.25 21.859375 C 252.332031 22.472656 252.378906 23.082031 252.386719 23.699219 C 252.398438 24.316406 252.371094 24.929688 252.304688 25.539062 C 252.242188 26.152344 252.144531 26.757812 252.007812 27.359375 C 251.875 27.960938 251.703125 28.550781 251.5 29.132812 C 251.296875 29.710938 251.058594 30.277344 250.785156 30.832031 C 250.515625 31.382812 250.210938 31.917969 249.878906 32.433594 C 249.542969 32.953125 249.179688 33.445312 248.785156 33.921875 C 248.394531 34.394531 247.972656 34.84375 247.527344 35.265625 C 247.082031 35.691406 246.613281 36.089844 246.121094 36.457031 C 245.628906 36.824219 245.113281 37.164062 244.582031 37.472656 C 244.050781 37.78125 243.5 38.058594 242.933594 38.300781 C 242.371094 38.542969 241.792969 38.753906 241.203125 38.929688 C 240.613281 39.105469 240.011719 39.246094 239.40625 39.347656 C 238.800781 39.453125 238.191406 39.523438 237.574219 39.554688 L 229.660156 72.632812 L 257.910156 72.632812 C 259.121094 72.636719 260.324219 72.699219 261.527344 72.820312 C 262.734375 72.941406 263.925781 73.121094 265.113281 73.359375 C 266.296875 73.597656 267.46875 73.894531 268.625 74.25 C 269.78125 74.601562 270.917969 75.011719 272.035156 75.476562 C 273.152344 75.941406 274.242188 76.457031 275.308594 77.03125 C 276.375 77.601562 277.410156 78.222656 278.414062 78.898438 C 279.417969 79.570312 280.390625 80.289062 281.324219 81.058594 C 282.257812 81.828125 283.152344 82.640625 284.007812 83.496094 C 284.859375 84.351562 285.671875 85.246094 286.4375 86.179688 C 287.207031 87.117188 287.925781 88.085938 288.597656 89.089844 C 289.269531 90.097656 289.890625 91.132812 290.460938 92.199219 C 291.03125 93.265625 291.546875 94.359375 292.011719 95.476562 C 292.472656 96.59375 292.882812 97.730469 293.234375 98.886719 C 293.585938 100.042969 293.878906 101.214844 294.117188 102.402344 C 294.355469 103.585938 294.53125 104.78125 294.652344 105.984375 C 294.773438 107.1875 294.835938 108.394531 294.835938 109.605469 Z M 294.835938 109.625 " fill-opacity="1" fill-rule="evenodd"/></g><g fill="#ffffff" fill-opacity="1"><g transform="translate(104.956508, 318.037258)"><g><path d="M 8.390625 -33.53125 L 13.03125 -10.15625 L 13.125 -10.15625 L 18.296875 -33.53125 L 27.015625 -33.53125 L 20.59375 -8.1875 C 20.144531 -6.375 19.679688 -4.898438 19.203125 -3.765625 C 18.722656 -2.628906 18.195312 -1.738281 17.625 -1.09375 C 17.050781 -0.457031 16.378906 -0.0195312 15.609375 0.21875 C 14.847656 0.457031 13.957031 0.578125 12.9375 0.578125 C 11.914062 0.578125 11.03125 0.441406 10.28125 0.171875 C 9.53125 -0.0976562 8.863281 -0.550781 8.28125 -1.1875 C 7.707031 -1.832031 7.203125 -2.679688 6.765625 -3.734375 C 6.335938 -4.785156 5.953125 -6.113281 5.609375 -7.71875 L -0.390625 -33.53125 Z M 8.390625 -33.53125 "/></g></g></g><g fill="#ffffff" fill-opacity="1"><g transform="translate(131.590855, 318.037258)"><g><path d="M 21.65625 -33.53125 L 21.65625 -25.78125 L 20.84375 -25.78125 C 19.75 -25.78125 18.539062 -25.722656 17.21875 -25.609375 C 15.894531 -25.492188 14.722656 -25.164062 13.703125 -24.625 C 12.992188 -24.238281 12.398438 -23.691406 11.921875 -22.984375 C 11.441406 -22.285156 10.960938 -21.425781 10.484375 -20.40625 L 21.65625 -20.40625 L 21.65625 -13.125 L 10.484375 -13.125 C 10.929688 -12.070312 11.382812 -11.21875 11.84375 -10.5625 C 12.3125 -9.90625 12.84375 -9.378906 13.4375 -8.984375 C 14.03125 -8.585938 14.722656 -8.300781 15.515625 -8.125 C 16.316406 -7.945312 17.273438 -7.84375 18.390625 -7.8125 C 18.867188 -7.78125 19.375 -7.765625 19.90625 -7.765625 C 20.4375 -7.765625 21.019531 -7.765625 21.65625 -7.765625 L 21.65625 0 L 16.71875 0 C 14.582031 0 12.59375 -0.421875 10.75 -1.265625 C 8.914062 -2.109375 7.316406 -3.28125 5.953125 -4.78125 C 4.597656 -6.289062 3.53125 -8.066406 2.75 -10.109375 C 1.96875 -12.148438 1.578125 -14.367188 1.578125 -16.765625 C 1.578125 -19.128906 1.957031 -21.332031 2.71875 -23.375 C 3.488281 -25.414062 4.550781 -27.1875 5.90625 -28.6875 C 7.269531 -30.195312 8.867188 -31.378906 10.703125 -32.234375 C 12.546875 -33.097656 14.550781 -33.53125 16.71875 -33.53125 Z M 21.65625 -33.53125 "/></g></g></g><g fill="#ffffff" fill-opacity="1"><g transform="translate(155.542603, 318.037258)"><g><path d="M 20.796875 -15.8125 L 20.890625 -15.8125 L 20.890625 -33.53125 L 29.21875 -33.53125 L 29.21875 -4.171875 C 29.21875 -3.492188 29.097656 -2.867188 28.859375 -2.296875 C 28.617188 -1.722656 28.289062 -1.21875 27.875 -0.78125 C 27.46875 -0.351562 27 -0.0195312 26.46875 0.21875 C 25.9375 0.457031 25.382812 0.578125 24.8125 0.578125 C 23.46875 0.578125 22.363281 0.128906 21.5 -0.765625 C 20.644531 -1.660156 19.769531 -2.96875 18.875 -4.6875 L 11.109375 -19.640625 L 11.015625 -19.640625 L 11.015625 0 L 2.6875 0 L 2.6875 -29.65625 C 2.6875 -30.257812 2.804688 -30.832031 3.046875 -31.375 C 3.285156 -31.914062 3.617188 -32.382812 4.046875 -32.78125 C 4.472656 -33.1875 4.988281 -33.507812 5.59375 -33.75 C 6.207031 -33.988281 6.878906 -34.109375 7.609375 -34.109375 C 9.148438 -34.109375 10.347656 -33.796875 11.203125 -33.171875 C 12.066406 -32.546875 12.769531 -31.707031 13.3125 -30.65625 Z M 20.796875 -15.8125 "/></g></g></g><g fill="#ffffff" fill-opacity="1"><g transform="translate(187.49423, 318.037258)"><g><path d="M 10.734375 -33.53125 L 10.734375 -22.328125 C 10.734375 -21.492188 10.921875 -20.753906 11.296875 -20.109375 C 11.679688 -19.472656 12.351562 -19.15625 13.3125 -19.15625 C 14.269531 -19.15625 14.941406 -19.472656 15.328125 -20.109375 C 15.710938 -20.753906 15.90625 -21.492188 15.90625 -22.328125 L 15.90625 -33.53125 L 24.234375 -33.53125 L 24.234375 -21.46875 C 24.234375 -20.507812 24.113281 -19.550781 23.875 -18.59375 C 23.632812 -17.632812 23.25 -16.726562 22.71875 -15.875 C 22.195312 -15.03125 21.519531 -14.269531 20.6875 -13.59375 C 19.863281 -12.925781 18.859375 -12.382812 17.671875 -11.96875 L 17.671875 0 L 9.34375 0 L 9.34375 -11.96875 C 8.1875 -12.289062 7.175781 -12.769531 6.3125 -13.40625 C 5.457031 -14.050781 4.742188 -14.785156 4.171875 -15.609375 C 3.597656 -16.441406 3.15625 -17.359375 2.84375 -18.359375 C 2.539062 -19.367188 2.390625 -20.421875 2.390625 -21.515625 L 2.390625 -33.53125 Z M 10.734375 -33.53125 "/></g></g></g><g fill="#ffffff" fill-opacity="1"><g transform="translate(214.128577, 318.037258)"><g/></g></g><g fill="#ffffff" fill-opacity="1"><g transform="translate(227.44575, 318.037258)"><g><path d="M 26.34375 0 L 18.015625 0 L 18.015625 -11.6875 L 12.796875 -11.6875 L 12.796875 -19.265625 L 18.015625 -19.265625 L 18.015625 -22.5625 C 18.015625 -23.675781 17.707031 -24.617188 17.09375 -25.390625 C 16.488281 -26.160156 15.660156 -26.546875 14.609375 -26.546875 C 13.554688 -26.546875 12.722656 -26.160156 12.109375 -25.390625 C 11.503906 -24.617188 11.203125 -23.675781 11.203125 -22.5625 L 11.203125 0 L 2.875 0 L 2.875 -22.234375 C 2.875 -23.953125 3.148438 -25.535156 3.703125 -26.984375 C 4.265625 -28.441406 5.066406 -29.695312 6.109375 -30.75 C 7.148438 -31.8125 8.382812 -32.632812 9.8125 -33.21875 C 11.25 -33.8125 12.847656 -34.109375 14.609375 -34.109375 C 16.398438 -34.109375 18.019531 -33.800781 19.46875 -33.1875 C 20.925781 -32.582031 22.164062 -31.742188 23.1875 -30.671875 C 24.207031 -29.609375 24.988281 -28.347656 25.53125 -26.890625 C 26.070312 -25.441406 26.34375 -23.890625 26.34375 -22.234375 Z M 26.34375 0 "/></g></g></g><g fill="#ffffff" fill-opacity="1"><g transform="translate(256.714791, 318.037258)"><g><path d="M 10.828125 -33.53125 L 10.828125 0 L 2.484375 0 L 2.484375 -33.53125 Z M 10.828125 -33.53125 "/></g></g></g><g fill="#ffffff" fill-opacity="1"><g transform="translate(96.745314, 344.693454)"><g><path d="M 1.96875 -4.46875 L 0.265625 -4.46875 L 0.265625 -5.59375 L 4.90625 -5.59375 L 4.90625 -4.46875 L 3.203125 -4.46875 L 3.203125 0 L 1.96875 0 Z M 1.96875 -4.46875 "/></g></g></g><g fill="#ffffff" fill-opacity="1"><g transform="translate(101.924659, 344.693454)"><g><path d="M 0.671875 -5.59375 L 1.90625 -5.59375 L 1.90625 -3.390625 L 4.171875 -3.390625 L 4.171875 -5.59375 L 5.40625 -5.59375 L 5.40625 0 L 4.171875 0 L 4.171875 -2.25 L 1.90625 -2.25 L 1.90625 0 L 0.671875 0 Z M 0.671875 -5.59375 "/></g></g></g><g fill="#ffffff" fill-opacity="1"><g transform="translate(107.999199, 344.693454)"><g><path d="M 0.671875 -5.59375 L 4.890625 -5.59375 L 4.890625 -4.5 L 1.890625 -4.5 L 1.890625 -3.375 L 4.53125 -3.375 L 4.53125 -2.265625 L 1.890625 -2.265625 L 1.890625 -1.09375 L 4.9375 -1.09375 L 4.9375 0 L 0.671875 0 Z M 0.671875 -5.59375 "/></g></g></g><g fill="#ffffff" fill-opacity="1"><g transform="translate(113.35438, 344.693454)"><g/></g></g><g fill="#ffffff" fill-opacity="1"><g transform="translate(115.75222, 344.693454)"><g><path d="M 2.59375 -5.640625 L 3.734375 -5.640625 L 6.125 0 L 4.84375 0 L 4.328125 -1.25 L 1.953125 -1.25 L 1.453125 0 L 0.1875 0 Z M 3.890625 -2.34375 L 3.140625 -4.15625 L 2.40625 -2.34375 Z M 3.890625 -2.34375 "/></g></g></g><g fill="#ffffff" fill-opacity="1"><g transform="translate(122.066542, 344.693454)"><g><path d="M 2.65625 0.078125 C 2.238281 0.078125 1.820312 0.00390625 1.40625 -0.140625 C 1 -0.285156 0.625 -0.507812 0.28125 -0.8125 L 1.015625 -1.6875 C 1.273438 -1.476562 1.535156 -1.3125 1.796875 -1.1875 C 2.066406 -1.070312 2.363281 -1.015625 2.6875 -1.015625 C 2.945312 -1.015625 3.144531 -1.054688 3.28125 -1.140625 C 3.425781 -1.234375 3.5 -1.363281 3.5 -1.53125 L 3.5 -1.546875 C 3.5 -1.628906 3.484375 -1.703125 3.453125 -1.765625 C 3.421875 -1.828125 3.363281 -1.882812 3.28125 -1.9375 C 3.195312 -1.988281 3.082031 -2.039062 2.9375 -2.09375 C 2.789062 -2.144531 2.601562 -2.203125 2.375 -2.265625 C 2.082031 -2.335938 1.820312 -2.414062 1.59375 -2.5 C 1.363281 -2.582031 1.171875 -2.6875 1.015625 -2.8125 C 0.859375 -2.9375 0.734375 -3.09375 0.640625 -3.28125 C 0.554688 -3.46875 0.515625 -3.695312 0.515625 -3.96875 L 0.515625 -3.984375 C 0.515625 -4.242188 0.5625 -4.472656 0.65625 -4.671875 C 0.75 -4.878906 0.878906 -5.054688 1.046875 -5.203125 C 1.222656 -5.359375 1.429688 -5.476562 1.671875 -5.5625 C 1.921875 -5.644531 2.1875 -5.6875 2.46875 -5.6875 C 2.882812 -5.6875 3.265625 -5.625 3.609375 -5.5 C 3.953125 -5.375 4.265625 -5.195312 4.546875 -4.96875 L 3.90625 -4.046875 C 3.65625 -4.210938 3.410156 -4.34375 3.171875 -4.4375 C 2.929688 -4.539062 2.691406 -4.59375 2.453125 -4.59375 C 2.210938 -4.59375 2.03125 -4.546875 1.90625 -4.453125 C 1.789062 -4.359375 1.734375 -4.242188 1.734375 -4.109375 L 1.734375 -4.09375 C 1.734375 -4 1.75 -3.914062 1.78125 -3.84375 C 1.820312 -3.78125 1.882812 -3.722656 1.96875 -3.671875 C 2.0625 -3.617188 2.1875 -3.566406 2.34375 -3.515625 C 2.5 -3.472656 2.695312 -3.421875 2.9375 -3.359375 C 3.226562 -3.273438 3.484375 -3.1875 3.703125 -3.09375 C 3.921875 -3 4.101562 -2.882812 4.25 -2.75 C 4.40625 -2.625 4.519531 -2.472656 4.59375 -2.296875 C 4.675781 -2.128906 4.71875 -1.921875 4.71875 -1.671875 L 4.71875 -1.65625 C 4.71875 -1.375 4.664062 -1.125 4.5625 -0.90625 C 4.46875 -0.695312 4.328125 -0.519531 4.140625 -0.375 C 3.960938 -0.226562 3.75 -0.113281 3.5 -0.03125 C 3.25 0.0390625 2.96875 0.078125 2.65625 0.078125 Z M 2.65625 0.078125 "/></g></g></g><g fill="#ffffff" fill-opacity="1"><g transform="translate(127.18194, 344.693454)"><g><path d="M 2.65625 0.078125 C 2.238281 0.078125 1.820312 0.00390625 1.40625 -0.140625 C 1 -0.285156 0.625 -0.507812 0.28125 -0.8125 L 1.015625 -1.6875 C 1.273438 -1.476562 1.535156 -1.3125 1.796875 -1.1875 C 2.066406 -1.070312 2.363281 -1.015625 2.6875 -1.015625 C 2.945312 -1.015625 3.144531 -1.054688 3.28125 -1.140625 C 3.425781 -1.234375 3.5 -1.363281 3.5 -1.53125 L 3.5 -1.546875 C 3.5 -1.628906 3.484375 -1.703125 3.453125 -1.765625 C 3.421875 -1.828125 3.363281 -1.882812 3.28125 -1.9375 C 3.195312 -1.988281 3.082031 -2.039062 2.9375 -2.09375 C 2.789062 -2.144531 2.601562 -2.203125 2.375 -2.265625 C 2.082031 -2.335938 1.820312 -2.414062 1.59375 -2.5 C 1.363281 -2.582031 1.171875 -2.6875 1.015625 -2.8125 C 0.859375 -2.9375 0.734375 -3.09375 0.640625 -3.28125 C 0.554688 -3.46875 0.515625 -3.695312 0.515625 -3.96875 L 0.515625 -3.984375 C 0.515625 -4.242188 0.5625 -4.472656 0.65625 -4.671875 C 0.75 -4.878906 0.878906 -5.054688 1.046875 -5.203125 C 1.222656 -5.359375 1.429688 -5.476562 1.671875 -5.5625 C 1.921875 -5.644531 2.1875 -5.6875 2.46875 -5.6875 C 2.882812 -5.6875 3.265625 -5.625 3.609375 -5.5 C 3.953125 -5.375 4.265625 -5.195312 4.546875 -4.96875 L 3.90625 -4.046875 C 3.65625 -4.210938 3.410156 -4.34375 3.171875 -4.4375 C 2.929688 -4.539062 2.691406 -4.59375 2.453125 -4.59375 C 2.210938 -4.59375 2.03125 -4.546875 1.90625 -4.453125 C 1.789062 -4.359375 1.734375 -4.242188 1.734375 -4.109375 L 1.734375 -4.09375 C 1.734375 -4 1.75 -3.914062 1.78125 -3.84375 C 1.820312 -3.78125 1.882812 -3.722656 1.96875 -3.671875 C 2.0625 -3.617188 2.1875 -3.566406 2.34375 -3.515625 C 2.5 -3.472656 2.695312 -3.421875 2.9375 -3.359375 C 3.226562 -3.273438 3.484375 -3.1875 3.703125 -3.09375 C 3.921875 -3 4.101562 -2.882812 4.25 -2.75 C 4.40625 -2.625 4.519531 -2.472656 4.59375 -2.296875 C 4.675781 -2.128906 4.71875 -1.921875 4.71875 -1.671875 L 4.71875 -1.65625 C 4.71875 -1.375 4.664062 -1.125 4.5625 -0.90625 C 4.46875 -0.695312 4.328125 -0.519531 4.140625 -0.375 C 3.960938 -0.226562 3.75 -0.113281 3.5 -0.03125 C 3.25 0.0390625 2.96875 0.078125 2.65625 0.078125 Z M 2.65625 0.078125 "/></g></g></g><g fill="#ffffff" fill-opacity="1"><g transform="translate(132.297338, 344.693454)"><g><path d="M 0.734375 -5.59375 L 1.953125 -5.59375 L 1.953125 0 L 0.734375 0 Z M 0.734375 -5.59375 "/></g></g></g><g fill="#ffffff" fill-opacity="1"><g transform="translate(134.982921, 344.693454)"><g><path d="M 2.65625 0.078125 C 2.238281 0.078125 1.820312 0.00390625 1.40625 -0.140625 C 1 -0.285156 0.625 -0.507812 0.28125 -0.8125 L 1.015625 -1.6875 C 1.273438 -1.476562 1.535156 -1.3125 1.796875 -1.1875 C 2.066406 -1.070312 2.363281 -1.015625 2.6875 -1.015625 C 2.945312 -1.015625 3.144531 -1.054688 3.28125 -1.140625 C 3.425781 -1.234375 3.5 -1.363281 3.5 -1.53125 L 3.5 -1.546875 C 3.5 -1.628906 3.484375 -1.703125 3.453125 -1.765625 C 3.421875 -1.828125 3.363281 -1.882812 3.28125 -1.9375 C 3.195312 -1.988281 3.082031 -2.039062 2.9375 -2.09375 C 2.789062 -2.144531 2.601562 -2.203125 2.375 -2.265625 C 2.082031 -2.335938 1.820312 -2.414062 1.59375 -2.5 C 1.363281 -2.582031 1.171875 -2.6875 1.015625 -2.8125 C 0.859375 -2.9375 0.734375 -3.09375 0.640625 -3.28125 C 0.554688 -3.46875 0.515625 -3.695312 0.515625 -3.96875 L 0.515625 -3.984375 C 0.515625 -4.242188 0.5625 -4.472656 0.65625 -4.671875 C 0.75 -4.878906 0.878906 -5.054688 1.046875 -5.203125 C 1.222656 -5.359375 1.429688 -5.476562 1.671875 -5.5625 C 1.921875 -5.644531 2.1875 -5.6875 2.46875 -5.6875 C 2.882812 -5.6875 3.265625 -5.625 3.609375 -5.5 C 3.953125 -5.375 4.265625 -5.195312 4.546875 -4.96875 L 3.90625 -4.046875 C 3.65625 -4.210938 3.410156 -4.34375 3.171875 -4.4375 C 2.929688 -4.539062 2.691406 -4.59375 2.453125 -4.59375 C 2.210938 -4.59375 2.03125 -4.546875 1.90625 -4.453125 C 1.789062 -4.359375 1.734375 -4.242188 1.734375 -4.109375 L 1.734375 -4.09375 C 1.734375 -4 1.75 -3.914062 1.78125 -3.84375 C 1.820312 -3.78125 1.882812 -3.722656 1.96875 -3.671875 C 2.0625 -3.617188 2.1875 -3.566406 2.34375 -3.515625 C 2.5 -3.472656 2.695312 -3.421875 2.9375 -3.359375 C 3.226562 -3.273438 3.484375 -3.1875 3.703125 -3.09375 C 3.921875 -3 4.101562 -2.882812 4.25 -2.75 C 4.40625 -2.625 4.519531 -2.472656 4.59375 -2.296875 C 4.675781 -2.128906 4.71875 -1.921875 4.71875 -1.671875 L 4.71875 -1.65625 C 4.71875 -1.375 4.664062 -1.125 4.5625 -0.90625 C 4.46875 -0.695312 4.328125 -0.519531 4.140625 -0.375 C 3.960938 -0.226562 3.75 -0.113281 3.5 -0.03125 C 3.25 0.0390625 2.96875 0.078125 2.65625 0.078125 Z M 2.65625 0.078125 "/></g></g></g><g fill="#ffffff" fill-opacity="1"><g transform="translate(140.098319, 344.693454)"><g><path d="M 1.96875 -4.46875 L 0.265625 -4.46875 L 0.265625 -5.59375 L 4.90625 -5.59375 L 4.90625 -4.46875 L 3.203125 -4.46875 L 3.203125 0 L 1.96875 0 Z M 1.96875 -4.46875 "/></g></g></g><g fill="#ffffff" fill-opacity="1"><g transform="translate(145.277664, 344.693454)"><g><path d="M 2.59375 -5.640625 L 3.734375 -5.640625 L 6.125 0 L 4.84375 0 L 4.328125 -1.25 L 1.953125 -1.25 L 1.453125 0 L 0.1875 0 Z M 3.890625 -2.34375 L 3.140625 -4.15625 L 2.40625 -2.34375 Z M 3.890625 -2.34375 "/></g></g></g><g fill="#ffffff" fill-opacity="1"><g transform="translate(151.591987, 344.693454)"><g><path d="M 0.671875 -5.59375 L 1.8125 -5.59375 L 4.4375 -2.15625 L 4.4375 -5.59375 L 5.640625 -5.59375 L 5.640625 0 L 4.59375 0 L 1.890625 -3.5625 L 1.890625 0 L 0.671875 0 Z M 0.671875 -5.59375 "/></g></g></g><g fill="#ffffff" fill-opacity="1"><g transform="translate(157.90631, 344.693454)"><g><path d="M 1.96875 -4.46875 L 0.265625 -4.46875 L 0.265625 -5.59375 L 4.90625 -5.59375 L 4.90625 -4.46875 L 3.203125 -4.46875 L 3.203125 0 L 1.96875 0 Z M 1.96875 -4.46875 "/></g></g></g><g fill="#ffffff" fill-opacity="1"><g transform="translate(163.085655, 344.693454)"><g/></g></g><g fill="#ffffff" fill-opacity="1"><g transform="translate(165.483495, 344.693454)"><g><path d="M 2.25 -2.203125 L 0.09375 -5.59375 L 1.53125 -5.59375 L 2.875 -3.359375 L 4.234375 -5.59375 L 5.625 -5.59375 L 3.484375 -2.234375 L 3.484375 0 L 2.25 0 Z M 2.25 -2.203125 "/></g></g></g><g fill="#ffffff" fill-opacity="1"><g transform="translate(171.206343, 344.693454)"><g><path d="M 3.390625 0.09375 C 2.960938 0.09375 2.566406 0.0195312 2.203125 -0.125 C 1.835938 -0.28125 1.519531 -0.488281 1.25 -0.75 C 0.988281 -1.007812 0.785156 -1.3125 0.640625 -1.65625 C 0.492188 -2.007812 0.421875 -2.382812 0.421875 -2.78125 L 0.421875 -2.796875 C 0.421875 -3.203125 0.492188 -3.578125 0.640625 -3.921875 C 0.796875 -4.273438 1.003906 -4.582031 1.265625 -4.84375 C 1.523438 -5.101562 1.835938 -5.3125 2.203125 -5.46875 C 2.578125 -5.625 2.976562 -5.703125 3.40625 -5.703125 C 3.84375 -5.703125 4.238281 -5.625 4.59375 -5.46875 C 4.957031 -5.3125 5.269531 -5.101562 5.53125 -4.84375 C 5.800781 -4.59375 6.007812 -4.289062 6.15625 -3.9375 C 6.300781 -3.59375 6.375 -3.21875 6.375 -2.8125 L 6.375 -2.796875 C 6.375 -2.398438 6.296875 -2.023438 6.140625 -1.671875 C 5.992188 -1.328125 5.789062 -1.019531 5.53125 -0.75 C 5.269531 -0.488281 4.957031 -0.28125 4.59375 -0.125 C 4.226562 0.0195312 3.828125 0.09375 3.390625 0.09375 Z M 3.40625 -1.046875 C 3.65625 -1.046875 3.882812 -1.085938 4.09375 -1.171875 C 4.300781 -1.265625 4.476562 -1.390625 4.625 -1.546875 C 4.769531 -1.710938 4.882812 -1.898438 4.96875 -2.109375 C 5.050781 -2.316406 5.09375 -2.539062 5.09375 -2.78125 L 5.09375 -2.796875 C 5.09375 -3.035156 5.050781 -3.257812 4.96875 -3.46875 C 4.882812 -3.6875 4.765625 -3.875 4.609375 -4.03125 C 4.460938 -4.195312 4.285156 -4.328125 4.078125 -4.421875 C 3.867188 -4.515625 3.640625 -4.5625 3.390625 -4.5625 C 3.140625 -4.5625 2.910156 -4.515625 2.703125 -4.421875 C 2.503906 -4.328125 2.328125 -4.203125 2.171875 -4.046875 C 2.023438 -3.890625 1.910156 -3.703125 1.828125 -3.484375 C 1.753906 -3.273438 1.71875 -3.050781 1.71875 -2.8125 L 1.71875 -2.796875 C 1.71875 -2.554688 1.753906 -2.328125 1.828125 -2.109375 C 1.910156 -1.898438 2.03125 -1.710938 2.1875 -1.546875 C 2.34375 -1.390625 2.519531 -1.265625 2.71875 -1.171875 C 2.925781 -1.085938 3.15625 -1.046875 3.40625 -1.046875 Z M 3.40625 -1.046875 "/></g></g></g><g fill="#ffffff" fill-opacity="1"><g transform="translate(178.000232, 344.693454)"><g><path d="M 3.015625 0.09375 C 2.253906 0.09375 1.65625 -0.113281 1.21875 -0.53125 C 0.789062 -0.945312 0.578125 -1.570312 0.578125 -2.40625 L 0.578125 -5.59375 L 1.8125 -5.59375 L 1.8125 -2.4375 C 1.8125 -1.976562 1.914062 -1.628906 2.125 -1.390625 C 2.34375 -1.160156 2.644531 -1.046875 3.03125 -1.046875 C 3.40625 -1.046875 3.695312 -1.15625 3.90625 -1.375 C 4.125 -1.601562 4.234375 -1.941406 4.234375 -2.390625 L 4.234375 -5.59375 L 5.46875 -5.59375 L 5.46875 -2.4375 C 5.46875 -2.007812 5.410156 -1.640625 5.296875 -1.328125 C 5.179688 -1.015625 5.015625 -0.75 4.796875 -0.53125 C 4.585938 -0.320312 4.328125 -0.164062 4.015625 -0.0625 C 3.710938 0.0390625 3.378906 0.09375 3.015625 0.09375 Z M 3.015625 0.09375 "/></g></g></g><g fill="#ffffff" fill-opacity="1"><g transform="translate(184.042798, 344.693454)"><g/></g></g><g fill="#ffffff" fill-opacity="1"><g transform="translate(186.440638, 344.693454)"><g><path d="M 0.671875 -5.59375 L 1.8125 -5.59375 L 4.4375 -2.15625 L 4.4375 -5.59375 L 5.640625 -5.59375 L 5.640625 0 L 4.59375 0 L 1.890625 -3.5625 L 1.890625 0 L 0.671875 0 Z M 0.671875 -5.59375 "/></g></g></g><g fill="#ffffff" fill-opacity="1"><g transform="translate(192.754961, 344.693454)"><g><path d="M 0.671875 -5.59375 L 4.890625 -5.59375 L 4.890625 -4.5 L 1.890625 -4.5 L 1.890625 -3.375 L 4.53125 -3.375 L 4.53125 -2.265625 L 1.890625 -2.265625 L 1.890625 -1.09375 L 4.9375 -1.09375 L 4.9375 0 L 0.671875 0 Z M 0.671875 -5.59375 "/></g></g></g><g fill="#ffffff" fill-opacity="1"><g transform="translate(198.110142, 344.693454)"><g><path d="M 0.671875 -5.59375 L 4.890625 -5.59375 L 4.890625 -4.5 L 1.890625 -4.5 L 1.890625 -3.375 L 4.53125 -3.375 L 4.53125 -2.265625 L 1.890625 -2.265625 L 1.890625 -1.09375 L 4.9375 -1.09375 L 4.9375 0 L 0.671875 0 Z M 0.671875 -5.59375 "/></g></g></g><g fill="#ffffff" fill-opacity="1"><g transform="translate(203.465322, 344.693454)"><g><path d="M 0.671875 -5.59375 L 2.859375 -5.59375 C 3.296875 -5.59375 3.695312 -5.519531 4.0625 -5.375 C 4.425781 -5.238281 4.738281 -5.046875 5 -4.796875 C 5.269531 -4.546875 5.472656 -4.25 5.609375 -3.90625 C 5.753906 -3.570312 5.828125 -3.207031 5.828125 -2.8125 L 5.828125 -2.796875 C 5.828125 -2.398438 5.753906 -2.03125 5.609375 -1.6875 C 5.472656 -1.351562 5.269531 -1.0625 5 -0.8125 C 4.738281 -0.5625 4.425781 -0.363281 4.0625 -0.21875 C 3.695312 -0.0703125 3.296875 0 2.859375 0 L 0.671875 0 Z M 1.90625 -4.484375 L 1.90625 -1.109375 L 2.859375 -1.109375 C 3.109375 -1.109375 3.335938 -1.148438 3.546875 -1.234375 C 3.753906 -1.316406 3.929688 -1.429688 4.078125 -1.578125 C 4.222656 -1.722656 4.335938 -1.894531 4.421875 -2.09375 C 4.503906 -2.300781 4.546875 -2.53125 4.546875 -2.78125 L 4.546875 -2.796875 C 4.546875 -3.046875 4.503906 -3.273438 4.421875 -3.484375 C 4.335938 -3.691406 4.222656 -3.867188 4.078125 -4.015625 C 3.929688 -4.160156 3.753906 -4.273438 3.546875 -4.359375 C 3.335938 -4.441406 3.109375 -4.484375 2.859375 -4.484375 Z M 1.90625 -4.484375 "/></g></g></g><g fill="#ffffff" fill-opacity="1"><g transform="translate(209.715697, 344.693454)"><g/></g></g><g fill="#ffffff" fill-opacity="1"><g transform="translate(212.113538, 344.693454)"><g><path d="M 0.671875 -5.59375 L 4.9375 -5.59375 L 4.9375 -4.484375 L 1.90625 -4.484375 L 1.90625 -3.28125 L 4.578125 -3.28125 L 4.578125 -2.171875 L 1.90625 -2.171875 L 1.90625 0 L 0.671875 0 Z M 0.671875 -5.59375 "/></g></g></g><g fill="#ffffff" fill-opacity="1"><g transform="translate(217.35682, 344.693454)"><g><path d="M 3.390625 0.09375 C 2.960938 0.09375 2.566406 0.0195312 2.203125 -0.125 C 1.835938 -0.28125 1.519531 -0.488281 1.25 -0.75 C 0.988281 -1.007812 0.785156 -1.3125 0.640625 -1.65625 C 0.492188 -2.007812 0.421875 -2.382812 0.421875 -2.78125 L 0.421875 -2.796875 C 0.421875 -3.203125 0.492188 -3.578125 0.640625 -3.921875 C 0.796875 -4.273438 1.003906 -4.582031 1.265625 -4.84375 C 1.523438 -5.101562 1.835938 -5.3125 2.203125 -5.46875 C 2.578125 -5.625 2.976562 -5.703125 3.40625 -5.703125 C 3.84375 -5.703125 4.238281 -5.625 4.59375 -5.46875 C 4.957031 -5.3125 5.269531 -5.101562 5.53125 -4.84375 C 5.800781 -4.59375 6.007812 -4.289062 6.15625 -3.9375 C 6.300781 -3.59375 6.375 -3.21875 6.375 -2.8125 L 6.375 -2.796875 C 6.375 -2.398438 6.296875 -2.023438 6.140625 -1.671875 C 5.992188 -1.328125 5.789062 -1.019531 5.53125 -0.75 C 5.269531 -0.488281 4.957031 -0.28125 4.59375 -0.125 C 4.226562 0.0195312 3.828125 0.09375 3.390625 0.09375 Z M 3.40625 -1.046875 C 3.65625 -1.046875 3.882812 -1.085938 4.09375 -1.171875 C 4.300781 -1.265625 4.476562 -1.390625 4.625 -1.546875 C 4.769531 -1.710938 4.882812 -1.898438 4.96875 -2.109375 C 5.050781 -2.316406 5.09375 -2.539062 5.09375 -2.78125 L 5.09375 -2.796875 C 5.09375 -3.035156 5.050781 -3.257812 4.96875 -3.46875 C 4.882812 -3.6875 4.765625 -3.875 4.609375 -4.03125 C 4.460938 -4.195312 4.285156 -4.328125 4.078125 -4.421875 C 3.867188 -4.515625 3.640625 -4.5625 3.390625 -4.5625 C 3.140625 -4.5625 2.910156 -4.515625 2.703125 -4.421875 C 2.503906 -4.328125 2.328125 -4.203125 2.171875 -4.046875 C 2.023438 -3.890625 1.910156 -3.703125 1.828125 -3.484375 C 1.753906 -3.273438 1.71875 -3.050781 1.71875 -2.8125 L 1.71875 -2.796875 C 1.71875 -2.554688 1.753906 -2.328125 1.828125 -2.109375 C 1.910156 -1.898438 2.03125 -1.710938 2.1875 -1.546875 C 2.34375 -1.390625 2.519531 -1.265625 2.71875 -1.171875 C 2.925781 -1.085938 3.15625 -1.046875 3.40625 -1.046875 Z M 3.40625 -1.046875 "/></g></g></g><g fill="#ffffff" fill-opacity="1"><g transform="translate(224.150709, 344.693454)"><g><path d="M 0.671875 -5.59375 L 3.234375 -5.59375 C 3.941406 -5.59375 4.484375 -5.40625 4.859375 -5.03125 C 5.179688 -4.707031 5.34375 -4.28125 5.34375 -3.75 L 5.34375 -3.734375 C 5.34375 -3.285156 5.234375 -2.914062 5.015625 -2.625 C 4.796875 -2.34375 4.503906 -2.132812 4.140625 -2 L 5.515625 0 L 4.078125 0 L 2.875 -1.796875 L 1.90625 -1.796875 L 1.90625 0 L 0.671875 0 Z M 3.15625 -2.875 C 3.457031 -2.875 3.6875 -2.945312 3.84375 -3.09375 C 4.007812 -3.238281 4.09375 -3.429688 4.09375 -3.671875 L 4.09375 -3.6875 C 4.09375 -3.957031 4.003906 -4.15625 3.828125 -4.28125 C 3.660156 -4.414062 3.425781 -4.484375 3.125 -4.484375 L 1.90625 -4.484375 L 1.90625 -2.875 Z M 3.15625 -2.875 "/></g></g></g><g fill="#ffffff" fill-opacity="1"><g transform="translate(229.929506, 344.693454)"><g/></g></g><g fill="#ffffff" fill-opacity="1"><g transform="translate(232.327347, 344.693454)"><g><path d="M 0.734375 -5.59375 L 1.953125 -5.59375 L 1.953125 0 L 0.734375 0 Z M 0.734375 -5.59375 "/></g></g></g><g fill="#ffffff" fill-opacity="1"><g transform="translate(235.01293, 344.693454)"><g><path d="M 0.671875 -5.59375 L 1.8125 -5.59375 L 4.4375 -2.15625 L 4.4375 -5.59375 L 5.640625 -5.59375 L 5.640625 0 L 4.59375 0 L 1.890625 -3.5625 L 1.890625 0 L 0.671875 0 Z M 0.671875 -5.59375 "/></g></g></g><g fill="#ffffff" fill-opacity="1"><g transform="translate(241.327253, 344.693454)"><g><path d="M 0.1875 -5.59375 L 1.546875 -5.59375 L 3.015625 -1.65625 L 4.484375 -5.59375 L 5.8125 -5.59375 L 3.546875 0.046875 L 2.453125 0.046875 Z M 0.1875 -5.59375 "/></g></g></g><g fill="#ffffff" fill-opacity="1"><g transform="translate(247.321858, 344.693454)"><g><path d="M 0.671875 -5.59375 L 4.890625 -5.59375 L 4.890625 -4.5 L 1.890625 -4.5 L 1.890625 -3.375 L 4.53125 -3.375 L 4.53125 -2.265625 L 1.890625 -2.265625 L 1.890625 -1.09375 L 4.9375 -1.09375 L 4.9375 0 L 0.671875 0 Z M 0.671875 -5.59375 "/></g></g></g><g fill="#ffffff" fill-opacity="1"><g transform="translate(252.677039, 344.693454)"><g><path d="M 2.65625 0.078125 C 2.238281 0.078125 1.820312 0.00390625 1.40625 -0.140625 C 1 -0.285156 0.625 -0.507812 0.28125 -0.8125 L 1.015625 -1.6875 C 1.273438 -1.476562 1.535156 -1.3125 1.796875 -1.1875 C 2.066406 -1.070312 2.363281 -1.015625 2.6875 -1.015625 C 2.945312 -1.015625 3.144531 -1.054688 3.28125 -1.140625 C 3.425781 -1.234375 3.5 -1.363281 3.5 -1.53125 L 3.5 -1.546875 C 3.5 -1.628906 3.484375 -1.703125 3.453125 -1.765625 C 3.421875 -1.828125 3.363281 -1.882812 3.28125 -1.9375 C 3.195312 -1.988281 3.082031 -2.039062 2.9375 -2.09375 C 2.789062 -2.144531 2.601562 -2.203125 2.375 -2.265625 C 2.082031 -2.335938 1.820312 -2.414062 1.59375 -2.5 C 1.363281 -2.582031 1.171875 -2.6875 1.015625 -2.8125 C 0.859375 -2.9375 0.734375 -3.09375 0.640625 -3.28125 C 0.554688 -3.46875 0.515625 -3.695312 0.515625 -3.96875 L 0.515625 -3.984375 C 0.515625 -4.242188 0.5625 -4.472656 0.65625 -4.671875 C 0.75 -4.878906 0.878906 -5.054688 1.046875 -5.203125 C 1.222656 -5.359375 1.429688 -5.476562 1.671875 -5.5625 C 1.921875 -5.644531 2.1875 -5.6875 2.46875 -5.6875 C 2.882812 -5.6875 3.265625 -5.625 3.609375 -5.5 C 3.953125 -5.375 4.265625 -5.195312 4.546875 -4.96875 L 3.90625 -4.046875 C 3.65625 -4.210938 3.410156 -4.34375 3.171875 -4.4375 C 2.929688 -4.539062 2.691406 -4.59375 2.453125 -4.59375 C 2.210938 -4.59375 2.03125 -4.546875 1.90625 -4.453125 C 1.789062 -4.359375 1.734375 -4.242188 1.734375 -4.109375 L 1.734375 -4.09375 C 1.734375 -4 1.75 -3.914062 1.78125 -3.84375 C 1.820312 -3.78125 1.882812 -3.722656 1.96875 -3.671875 C 2.0625 -3.617188 2.1875 -3.566406 2.34375 -3.515625 C 2.5 -3.472656 2.695312 -3.421875 2.9375 -3.359375 C 3.226562 -3.273438 3.484375 -3.1875 3.703125 -3.09375 C 3.921875 -3 4.101562 -2.882812 4.25 -2.75 C 4.40625 -2.625 4.519531 -2.472656 4.59375 -2.296875 C 4.675781 -2.128906 4.71875 -1.921875 4.71875 -1.671875 L 4.71875 -1.65625 C 4.71875 -1.375 4.664062 -1.125 4.5625 -0.90625 C 4.46875 -0.695312 4.328125 -0.519531 4.140625 -0.375 C 3.960938 -0.226562 3.75 -0.113281 3.5 -0.03125 C 3.25 0.0390625 2.96875 0.078125 2.65625 0.078125 Z M 2.65625 0.078125 "/></g></g></g><g fill="#ffffff" fill-opacity="1"><g transform="translate(257.792437, 344.693454)"><g><path d="M 1.96875 -4.46875 L 0.265625 -4.46875 L 0.265625 -5.59375 L 4.90625 -5.59375 L 4.90625 -4.46875 L 3.203125 -4.46875 L 3.203125 0 L 1.96875 0 Z M 1.96875 -4.46875 "/></g></g></g><g fill="#ffffff" fill-opacity="1"><g transform="translate(262.971782, 344.693454)"><g><path d="M 0.734375 -5.59375 L 1.953125 -5.59375 L 1.953125 0 L 0.734375 0 Z M 0.734375 -5.59375 "/></g></g></g><g fill="#ffffff" fill-opacity="1"><g transform="translate(265.657365, 344.693454)"><g><path d="M 0.671875 -5.59375 L 1.8125 -5.59375 L 4.4375 -2.15625 L 4.4375 -5.59375 L 5.640625 -5.59375 L 5.640625 0 L 4.59375 0 L 1.890625 -3.5625 L 1.890625 0 L 0.671875 0 Z M 0.671875 -5.59375 "/></g></g></g><g fill="#ffffff" fill-opacity="1"><g transform="translate(271.971688, 344.693454)"><g><path d="M 3.375 0.09375 C 2.9375 0.09375 2.535156 0.0195312 2.171875 -0.125 C 1.804688 -0.269531 1.492188 -0.46875 1.234375 -0.71875 C 0.984375 -0.976562 0.785156 -1.28125 0.640625 -1.625 C 0.492188 -1.976562 0.421875 -2.363281 0.421875 -2.78125 L 0.421875 -2.796875 C 0.421875 -3.203125 0.492188 -3.578125 0.640625 -3.921875 C 0.785156 -4.273438 0.988281 -4.582031 1.25 -4.84375 C 1.507812 -5.101562 1.816406 -5.3125 2.171875 -5.46875 C 2.535156 -5.625 2.929688 -5.703125 3.359375 -5.703125 C 3.609375 -5.703125 3.835938 -5.679688 4.046875 -5.640625 C 4.253906 -5.609375 4.441406 -5.5625 4.609375 -5.5 C 4.785156 -5.4375 4.953125 -5.351562 5.109375 -5.25 C 5.265625 -5.15625 5.414062 -5.046875 5.5625 -4.921875 L 4.78125 -3.984375 C 4.675781 -4.078125 4.566406 -4.160156 4.453125 -4.234375 C 4.347656 -4.304688 4.238281 -4.363281 4.125 -4.40625 C 4.007812 -4.457031 3.882812 -4.492188 3.75 -4.515625 C 3.625 -4.546875 3.476562 -4.5625 3.3125 -4.5625 C 3.09375 -4.5625 2.882812 -4.515625 2.6875 -4.421875 C 2.5 -4.328125 2.328125 -4.203125 2.171875 -4.046875 C 2.023438 -3.890625 1.910156 -3.703125 1.828125 -3.484375 C 1.753906 -3.273438 1.71875 -3.050781 1.71875 -2.8125 L 1.71875 -2.796875 C 1.71875 -2.546875 1.753906 -2.3125 1.828125 -2.09375 C 1.910156 -1.875 2.03125 -1.679688 2.1875 -1.515625 C 2.34375 -1.359375 2.519531 -1.238281 2.71875 -1.15625 C 2.925781 -1.070312 3.15625 -1.03125 3.40625 -1.03125 C 3.863281 -1.03125 4.25 -1.140625 4.5625 -1.359375 L 4.5625 -2.15625 L 3.328125 -2.15625 L 3.328125 -3.21875 L 5.765625 -3.21875 L 5.765625 -0.796875 C 5.472656 -0.546875 5.128906 -0.332031 4.734375 -0.15625 C 4.335938 0.0078125 3.882812 0.09375 3.375 0.09375 Z M 3.375 0.09375 "/></g></g></g></svg>